<svg xmlns="http://www.w3.org/2000/svg" viewBox="0 0 1000 1000"><defs><style>.a{fill:#2558b5;}.b{fill:#922e2e;}.c{fill:orange;}.d{fill:#ffd892;}.e{fill:#1d3b73;}.f{fill:#242830;}.g{fill:#fff;}.h{fill:#8cabe2;}</style></defs><polygon class="a" points="499.5 76.302 133 287.901 133 711.099 499.5 922.698 866 711.099 866 287.901 499.5 76.302"/><ellipse class="b" cx="455.5" cy="678.5" rx="187.5" ry="141.5"/><ellipse class="c" cx="453.5" cy="653.5" rx="116.5" ry="79.5"/><circle class="d" cx="450.5" cy="638.5" r="36.5"/><polygon class="e" points="133 622.606 185 579 238.936 545.827 280 553 309 533 348.587 505.347 376 553.908 388.22 565.212 407 586 414.642 611.024 433.138 650.181 466.165 650.181 485 631.882 499.5 592.22 528 558 556 522 581.101 539.827 604.881 577.764 619.413 577.764 634 557 669.5 539.827 701.321 539.827 728 555 755.486 577.764 782 601 818.899 611.024 849 554 866 532.771 866 711.099 499.5 922.698 133 711 133 622.606"/><polyline class="f" points="499.5 922.698 866 711.099 802 675 754.165 714.022 716 670 681.505 714.022 659.046 635.307 627.339 650.181 574 699 548 685 508.44 714.022 485 761.321 430.495 734.323 408.037 714.022 382 689 340.661 714.022 310 745 282.532 711 250 668 219.119 650.181 133 711"/><path class="g" d="M262.20752,290.92773c0,.3003.09961.39991.34961.39991h8.15137a.39748.39748,0,0,1,.44921.45019v2a.3973.3973,0,0,1-.44921.4502h-20.502a.398.398,0,0,1-.45019-.4502v-2a.39818.39818,0,0,1,.45019-.45019h8.20117c.25,0,.34961-.09961.34961-.39991V261.42627c0-.30029-.09961-.40039-.34961-.40039h-8.20117a.39783.39783,0,0,1-.45019-.44971v-2.00049a.39783.39783,0,0,1,.45019-.4497h11.55078a.39783.39783,0,0,1,.4502.4497Z"/><path class="g" d="M500.999,152.86475c0,.30029.09961.3999.34961.3999H509.5a.39749.39749,0,0,1,.44922.45019v2a.3973.3973,0,0,1-.44922.4502h-20.502a.398.398,0,0,1-.4502-.4502v-2a.39818.39818,0,0,1,.4502-.45019h8.20117c.25,0,.34961-.09961.34961-.3999V123.36328c0-.30029-.09961-.40039-.34961-.40039h-8.20117a.39784.39784,0,0,1-.4502-.44971V120.5127a.39784.39784,0,0,1,.4502-.44971h11.55078a.39783.39783,0,0,1,.45019.44971Z"/><path class="g" d="M378.999,298.86475c0,.30029.09961.3999.34961.3999H387.5a.39749.39749,0,0,1,.44922.45019v2a.3973.3973,0,0,1-.44922.4502h-20.502a.398.398,0,0,1-.4502-.4502v-2a.39818.39818,0,0,1,.4502-.45019h8.20117c.25,0,.34961-.09961.34961-.3999V269.36328c0-.30029-.09961-.40039-.34961-.40039h-8.20117a.39784.39784,0,0,1-.4502-.44971V266.5127a.39784.39784,0,0,1,.4502-.44971h11.55078a.39783.39783,0,0,1,.45019.44971Z"/><path class="g" d="M276.999,450.86475c0,.30029.09961.3999.34961.3999H285.5a.39749.39749,0,0,1,.44922.45019v2a.3973.3973,0,0,1-.44922.4502h-20.502a.398.398,0,0,1-.4502-.4502v-2a.39818.39818,0,0,1,.4502-.45019h8.20117c.25,0,.34961-.09961.34961-.3999V421.36328c0-.30029-.09961-.40039-.34961-.40039h-8.20117a.39784.39784,0,0,1-.4502-.44971V418.5127a.39784.39784,0,0,1,.4502-.44971h11.55078a.39783.39783,0,0,1,.45019.44971Z"/><path class="g" d="M495.999,260.86475c0,.30029.09961.3999.34961.3999H504.5a.39749.39749,0,0,1,.44922.45019v2a.3973.3973,0,0,1-.44922.4502h-20.502a.398.398,0,0,1-.4502-.4502v-2a.39818.39818,0,0,1,.4502-.45019h8.20117c.25,0,.34961-.09961.34961-.3999V231.36328c0-.30029-.09961-.40039-.34961-.40039h-8.20117a.39784.39784,0,0,1-.4502-.44971V228.5127a.39784.39784,0,0,1,.4502-.44971h11.55078a.39783.39783,0,0,1,.45019.44971Z"/><path class="g" d="M444.999,374.86475c0,.30029.09961.3999.34961.3999H453.5a.39749.39749,0,0,1,.44922.45019v2a.3973.3973,0,0,1-.44922.4502h-20.502a.398.398,0,0,1-.4502-.4502v-2a.39818.39818,0,0,1,.4502-.45019h8.20117c.25,0,.34961-.09961.34961-.3999V345.36328c0-.30029-.09961-.40039-.34961-.40039h-8.20117a.39784.39784,0,0,1-.4502-.44971V342.5127a.39784.39784,0,0,1,.4502-.44971h11.55078a.39783.39783,0,0,1,.45019.44971Z"/><path class="g" d="M516.999,443.86475c0,.30029.09961.3999.34961.3999H525.5a.39749.39749,0,0,1,.44922.45019v2a.3973.3973,0,0,1-.44922.4502h-20.502a.398.398,0,0,1-.4502-.4502v-2a.39818.39818,0,0,1,.4502-.45019h8.20117c.25,0,.34961-.09961.34961-.3999V414.36328c0-.30029-.09961-.40039-.34961-.40039h-8.20117a.39784.39784,0,0,1-.4502-.44971V411.5127a.39784.39784,0,0,1,.4502-.44971h11.55078a.39783.39783,0,0,1,.45019.44971Z"/><path class="g" d="M403.249,224.51514c-8.251,0-10.70117-7.70069-10.70117-18.40137,0-10.80029,2.40039-18.40088,10.70117-18.40088,8.2002,0,10.7002,7.60059,10.7002,18.40088C413.94922,216.81445,411.44922,224.51514,403.249,224.51514Zm0-34.20215c-4.55078,0-7.10058,5.40039-7.10058,15.80078,0,10.45068,2.5498,15.80127,7.10058,15.80127,4.5,0,7.10059-5.35059,7.10059-15.80127S407.749,190.313,403.249,190.313Z"/><path class="g" d="M314.249,357.51514c-8.251,0-10.70117-7.70069-10.70117-18.40137,0-10.80029,2.40039-18.40088,10.70117-18.40088,8.2002,0,10.7002,7.60059,10.7002,18.40088C324.94922,349.81445,322.44922,357.51514,314.249,357.51514Zm0-34.20215c-4.55078,0-7.10058,5.40039-7.10058,15.80078,0,10.45068,2.5498,15.80127,7.10058,15.80127,4.5,0,7.10059-5.35059,7.10059-15.80127S318.749,323.313,314.249,323.313Z"/><path class="g" d="M373.249,441.51514c-8.251,0-10.70117-7.70069-10.70117-18.40137,0-10.80029,2.40039-18.40088,10.70117-18.40088,8.2002,0,10.7002,7.60059,10.7002,18.40088C383.94922,433.81445,381.44922,441.51514,373.249,441.51514Zm0-34.20215c-4.55078,0-7.10058,5.40039-7.10058,15.80078,0,10.45068,2.5498,15.80127,7.10058,15.80127,4.5,0,7.10059-5.35059,7.10059-15.80127S377.749,407.313,373.249,407.313Z"/><path class="g" d="M620.249,459.51514c-8.251,0-10.70117-7.70069-10.70117-18.40137,0-10.80029,2.40039-18.40088,10.70117-18.40088,8.2002,0,10.7002,7.60059,10.7002,18.40088C630.94922,451.81445,628.44922,459.51514,620.249,459.51514Zm0-34.20215c-4.55078,0-7.10058,5.40039-7.10058,15.80078,0,10.45068,2.5498,15.80127,7.10058,15.80127,4.5,0,7.10059-5.35059,7.10059-15.80127S624.749,425.313,620.249,425.313Z"/><path class="g" d="M553.249,343.51514c-8.251,0-10.70117-7.70069-10.70117-18.40137,0-10.80029,2.40039-18.40088,10.70117-18.40088,8.2002,0,10.7002,7.60059,10.7002,18.40088C563.94922,335.81445,561.44922,343.51514,553.249,343.51514Zm0-34.20215c-4.55078,0-7.10058,5.40039-7.10058,15.80078,0,10.45068,2.5498,15.80127,7.10058,15.80127,4.5,0,7.10059-5.35059,7.10059-15.80127S557.749,309.313,553.249,309.313Z"/><path class="g" d="M823.249,357.51514c-8.251,0-10.70117-7.70069-10.70117-18.40137,0-10.80029,2.40039-18.40088,10.70117-18.40088,8.2002,0,10.7002,7.60059,10.7002,18.40088C833.94922,349.81445,831.44922,357.51514,823.249,357.51514Zm0-34.20215c-4.55078,0-7.10058,5.40039-7.10058,15.80078,0,10.45068,2.5498,15.80127,7.10058,15.80127,4.5,0,7.10059-5.35059,7.10059-15.80127S827.749,323.313,823.249,323.313Z"/><path class="g" d="M594.249,232.51514c-8.251,0-10.70117-7.70069-10.70117-18.40137,0-10.80029,2.40039-18.40088,10.70117-18.40088,8.2002,0,10.7002,7.60059,10.7002,18.40088C604.94922,224.81445,602.44922,232.51514,594.249,232.51514Zm0-34.20215c-4.55078,0-7.10058,5.40039-7.10058,15.80078,0,10.45068,2.5498,15.80127,7.10058,15.80127,4.5,0,7.10059-5.35059,7.10059-15.80127S598.749,198.313,594.249,198.313Z"/><path class="g" d="M189.249,397.51514c-8.251,0-10.70117-7.70069-10.70117-18.40137,0-10.80029,2.40039-18.40088,10.70117-18.40088,8.2002,0,10.7002,7.60059,10.7002,18.40088C199.94922,389.81445,197.44922,397.51514,189.249,397.51514Zm0-34.20215c-4.55078,0-7.10058,5.40039-7.10058,15.80078,0,10.45068,2.5498,15.80127,7.10058,15.80127,4.5,0,7.10059-5.35059,7.10059-15.80127S193.749,363.313,189.249,363.313Z"/><path class="g" d="M798.999,539.86523c0,.29981.09961.39942.34961.39942H807.5a.39749.39749,0,0,1,.44922.45019v2a.39711.39711,0,0,1-.44922.4502H786.99805a.3978.3978,0,0,1-.4502-.4502v-2a.39818.39818,0,0,1,.4502-.45019h8.20117c.25,0,.34961-.09961.34961-.39942v-29.502c0-.30078-.09961-.40039-.34961-.40039h-8.20117a.39788.39788,0,0,1-.4502-.44922v-2.001a.39818.39818,0,0,1,.4502-.4502h11.55078a.39818.39818,0,0,1,.45019.4502Z"/><path class="g" d="M802.999,437.86475c0,.30029.09961.3999.34961.3999H811.5a.39749.39749,0,0,1,.44922.45019v2a.3973.3973,0,0,1-.44922.4502H790.99805a.398.398,0,0,1-.4502-.4502v-2a.39818.39818,0,0,1,.4502-.45019h8.20117c.25,0,.34961-.09961.34961-.3999V408.36328c0-.30029-.09961-.40039-.34961-.40039h-8.20117a.39784.39784,0,0,1-.4502-.44971V405.5127a.39784.39784,0,0,1,.4502-.44971h11.55078a.39783.39783,0,0,1,.45019.44971Z"/><path class="g" d="M718.999,486.86475c0,.30029.09961.3999.34961.3999H727.5a.39749.39749,0,0,1,.44922.45019v2a.3973.3973,0,0,1-.44922.4502H706.99805a.398.398,0,0,1-.4502-.4502v-2a.39818.39818,0,0,1,.4502-.45019h8.20117c.25,0,.34961-.09961.34961-.3999V457.36328c0-.30029-.09961-.40039-.34961-.40039h-8.20117a.39784.39784,0,0,1-.4502-.44971V454.5127a.39784.39784,0,0,1,.4502-.44971h11.55078a.39783.39783,0,0,1,.45019.44971Z"/><path class="g" d="M179.999,486.86475c0,.30029.09961.3999.34961.3999H188.5a.39749.39749,0,0,1,.44922.45019v2a.3973.3973,0,0,1-.44922.4502H167.99805a.398.398,0,0,1-.4502-.4502v-2a.39818.39818,0,0,1,.4502-.45019h8.20117c.25,0,.34961-.09961.34961-.3999V457.36328c0-.30029-.09961-.40039-.34961-.40039h-8.20117a.39784.39784,0,0,1-.4502-.44971V454.5127a.39784.39784,0,0,1,.4502-.44971h11.55078a.39783.39783,0,0,1,.45019.44971Z"/><circle class="h" cx="697.5" cy="314.5" r="69.5"/><circle class="g" cx="698" cy="315" r="43"/></svg>